# xmcd
#
# Track frame offsets:
#	150
#	25562
#	47138
#	67793
#	83567
#	96110
#	107794
#
# Disc length: 1628 seconds
#
# Revision: 1
# Processed by: cddbd v1.4PL0 Copyright (c) Steve Scherf et al.
# Submitted via: audiograbber 1.80
#
DISCID=47065a07
DTITLE=The ShovelBlues Band - Free, Wild, Live and Unmixed
DYEAR=1900
DGENRE=
TTITLE0=Hey Joe
TTITLE1=Red House
TTITLE2=Driftin'
TTITLE3=Hoochie Coochie Man
TTITLE4=Little Wing
TTITLE5=Mary Had a Little Lamb
TTITLE6=Roadhouse Blues
EXTD=The first album of the Brazilian hottest Biker Blues Band
EXTT0=Jimi Hendrix
EXTT1=Jimi Hendrix
EXTT2=Fleetwood Mac
EXTT3=Mr Mojo - Muddy Waters
EXTT4=Jimi Hendrix
EXTT5=SRV
EXTT6=The Doors
PLAYORDER=
